<svg xmlns="http://www.w3.org/2000/svg" width="547.708" height="500.758" viewBox="0 0 547.708 500.758">
  <g id="Group_3252" data-name="Group 3252" transform="translate(-143.623 12759.021)">
    <g id="Icon-Piggy_Bank" data-name="Icon-Piggy Bank" transform="translate(143.623 -12759.021)">
      <path id="Path_196" data-name="Path 196" d="M256.042,431.672A8.079,8.079,0,0,0,252,424.6v16.167a10.1,10.1,0,0,0,4.042-9.1" transform="translate(115.66 -347.453)"/>
      <path id="Path_197" data-name="Path 197" d="M254.054,421a9.1,9.1,0,0,0-4.041,8.086c0,2.021,1.01,3.031,4.041,4.041Z" transform="translate(91.735 -382.356)"/>
      <path id="Path_198" data-name="Path 198" d="M290.546,560.432a74.779,74.779,0,1,0-45.638-83.575,74.77,74.77,0,0,0,45.638,83.575m-3.031-40.421a8.083,8.083,0,0,1,10.1-5.052l14.147,3.03V492.727c-9.095-4.042-20.21-9.095-20.21-22.232a24.256,24.256,0,0,1,10.105-21.222l9.1-4.041v-9.1a8.084,8.084,0,0,1,16.168,0v8.085l15.158,3.031a8.084,8.084,0,0,1-5.052,15.158l-10.106-2.021V480.6a25.85,25.85,0,0,1,9.094,46.484l-9.094,4.042v10.106a8.084,8.084,0,0,1-16.168,0v-6.063a71.664,71.664,0,0,1-20.212-4.042,8.083,8.083,0,0,1-5.052-10.1" transform="translate(-47.332 -416.23)" fill="#3d4954"/>
      <path id="Path_199" data-name="Path 199" d="M637.915,792.9l5.053-3.125,17.179-13.537a171.12,171.12,0,0,0,58.61-108.3h0a154.213,154.213,0,0,0,1.011-16.663,43.969,43.969,0,0,0-1.011-11.455c-5.052-69.774-57.6-132.258-137.432-159.333-16.163,34.689-51.258,55.672-88.5,52.913s-69.07-28.695-80.254-65.408a255.632,255.632,0,0,0-49.516,18.743c-33.347-72.9-86.9-64.565-86.9-64.565s1.01,36.447,38.4,97.891a184.841,184.841,0,0,0-54.569,85.393H223.6v96.849H262A196.522,196.522,0,0,0,344.863,804.35l-28.3,70.813h88.926l15.157-38.53a277.788,277.788,0,0,0,144.506-3.126l17.178,41.655h88.926l-27.284-66.648ZM343.852,605.444a8.088,8.088,0,1,1-16.168,0V578.368a8.088,8.088,0,1,1,16.168,0Z" transform="translate(-223.6 -374.405)" fill="#3d4954"/>
      <path id="Path_200" data-name="Path 200" d="M376.58,449.49a9.15,9.15,0,1,0-18.189,2.021,32.34,32.34,0,0,1-9.1,28.3,30.307,30.307,0,0,1-10.1,6.062,61.634,61.634,0,0,0-7.075-39.41,27.283,27.283,0,0,0-33.347-13.137,36.379,36.379,0,0,0-25.262,35.367c1.01,10.105,7.073,26.274,40.42,35.368a56.582,56.582,0,0,1-35.367,21.221,160.723,160.723,0,0,1,2.021,18.19A70.732,70.732,0,0,0,332.117,508.1h0a48.5,48.5,0,0,0,29.306-13.137,49.517,49.517,0,0,0,14.148-42.442M319.991,488.9c-18.189-4.041-28.3-11.116-29.3-19.2a18.187,18.187,0,0,1,13.136-16.168h4.042a10.105,10.105,0,0,1,8.084,6.064,45.478,45.478,0,0,1,4.042,31.326" transform="translate(171.128 -337.192)" fill="#3d4954"/>
    </g>
  </g>
</svg>
