<svg id="Bag" xmlns="http://www.w3.org/2000/svg" width="150" height="150" viewBox="0 0 150 150">
  <rect id="Container" width="150" height="150" fill="none"/>
  <path id="bag-2" data-name="bag" d="M72.523,0C59.616,0,49.038,8.994,49.038,20V31.8H24.974a3.983,3.983,0,0,0-.529,0A5.124,5.124,0,0,0,19.5,36.088L8.508,144.92a4.262,4.262,0,0,0,1.429,3.563A5.957,5.957,0,0,0,13.983,150h135a5.982,5.982,0,0,0,4.053-1.512,4.294,4.294,0,0,0,1.429-3.568l-11-108.832c-.24-2.426-2.624-4.289-5.475-4.289H113.939V20c0-11.01-10.544-20-23.452-20Zm0,9.375H90.494c7.007,0,12.461,4.652,12.461,10.629L102.948,31.8H60.029V20c0-5.977,5.489-10.629,12.5-10.629ZM30,41.179H49.029v13.9l.007.006c.062,2.549,2.507,4.582,5.5,4.582s5.427-2.033,5.5-4.582V41.179h42.919v13.91c.069,2.543,2.507,4.582,5.5,4.582s5.434-2.039,5.5-4.582v-13.9h19.027L142.98,140.63l-122.989-.006Z" transform="translate(-6.488)" fill="#3d4954"/>
</svg>
