<svg xmlns="http://www.w3.org/2000/svg" width="453.857" height="506.807" viewBox="0 0 453.857 506.807">
  <g id="Group_3234" data-name="Group 3234" transform="translate(-252 12762.388)">
    <g id="Icon_Group" data-name="Icon Group" transform="translate(252 -12762.388)">
      <g id="Icon-Thumbs_Up" data-name="Icon-Thumbs Up">
        <path id="Path_120" data-name="Path 120" d="M508.1,242.8V586.071H632.155V242.8Z" transform="translate(-508.1 -79.263)" fill="#3d4954"/>
        <path id="Path_121" data-name="Path 121" d="M813.292,548.973c34.838-7.614,50.131-66.834,0-82.908,40.786-16.074,36.535-76.985,0-81.215-13.593-1.692-105.361,0-105.361,0s59.478-192.04-62.876-157.355C665.449,380.621,563.485,424.612,524.4,435.61v263.1c53.529,5.923,242.159,24.534,288.891-16.073,11.9-10.153,24.641-31.3,0-55.836,34.836,0,42.484-67.679,0-76.986" transform="translate(-391.553 -223.304)" fill="#3d4954"/>
      </g>
    </g>
  </g>
</svg>
