<svg xmlns="http://www.w3.org/2000/svg" width="151.094" height="151" viewBox="0 0 151.094 151">
  <g id="Group_3254" data-name="Group 3254" transform="translate(15.094 12670)">
    <g id="Star" transform="translate(-14 -12669)">
      <path id="Star-2" data-name="Star" d="M111.214,49.306l31.75,4.7c9,1.332,12.607,12.7,6.1,19.233L126.129,96.284a11.483,11.483,0,0,0-3.145,9.99l5.459,32.488c1.547,9.215-7.851,16.251-15.907,11.912l-28.412-15.31a10.708,10.708,0,0,0-10.216.013L45.535,150.753c-8.044,4.359-17.467-2.657-15.94-11.872l5.382-32.5A11.486,11.486,0,0,0,31.806,96.4L8.821,73.414C2.3,66.895,5.882,55.519,14.88,54.168l31.737-4.777a11.009,11.009,0,0,0,8.257-6.181L69.034,13.624A10.849,10.849,0,0,1,88.719,13.6l14.232,29.547a11,11,0,0,0,8.263,6.161Z" transform="translate(-5.485 -7.325)" fill="none" stroke="#3d4954" stroke-width="2"/>
    </g>
  </g>
</svg>
