<svg xmlns="http://www.w3.org/2000/svg" width="150" height="80.743" viewBox="0 0 150 80.743">
  <g id="settings-10" transform="translate(150) rotate(90)">
    <path id="Shape" d="M4.129,149.974c-.62,0-1.106-2.333-1.106-5.312H3.05V39.371C1.255,36.987,0,29.05,0,20.074,0,9.005,1.864,0,4.156,0S8.339,9.005,8.339,20.074c0,9.049-1.276,17.037-3.1,19.427v105.16C5.236,147.641,4.75,149.974,4.129,149.974Zm0-139.383c-1.088,0-1.973,4.246-1.973,9.467s.885,9.472,1.973,9.472S6.1,25.281,6.1,20.058,5.216,10.591,4.128,10.591Z" transform="translate(0 0)" fill="#707070"/>
    <path id="Shape-2" data-name="Shape" d="M4.156,150c-.621,0-1.107-2.33-1.107-5.3v-46.2C1.254,96.108,0,88.175,0,79.207s1.254-16.9,3.049-19.284V5.308C3.049,2.332,3.535,0,4.156,0S5.262,2.332,5.262,5.308V59.662c1.827,2.388,3.1,10.374,3.1,19.414S7.089,96.1,5.262,98.491v46.2C5.262,147.67,4.776,150,4.156,150Zm.053-80.242c-1.086,0-1.97,4.239-1.97,9.45s.884,9.449,1.97,9.449,1.97-4.239,1.97-9.449S5.3,69.758,4.209,69.758Z" transform="translate(36.188 0)" fill="#707070"/>
    <path id="Shape-3" data-name="Shape" d="M4.183,149.974C1.877,149.974,0,140.969,0,129.9c0-8.993,1.265-16.928,3.077-19.3V5.312C3.077,2.333,3.563,0,4.183,0S5.29,2.333,5.29,5.312V110.6c1.837,2.4,3.1,10.341,3.076,19.3a73.262,73.262,0,0,1-1.221,14.214C6.358,147.892,5.306,149.974,4.183,149.974Zm.03-29.529c-1.088,0-1.974,4.249-1.974,9.472s.886,9.467,1.974,9.467,1.974-4.246,1.974-9.467S5.3,120.444,4.213,120.444Z" transform="translate(72.376 0)" fill="#707070"/>
  </g>
</svg>
