<svg id="icon-Paypal" xmlns="http://www.w3.org/2000/svg" width="150" height="100" viewBox="0 0 150 100">
  <rect id="Container" width="150" height="100" rx="4" fill="none"/>
  <g id="Paypal" transform="translate(50.009 20.148)">
    <path id="Path_2816" data-name="Path 2816" d="M45.275,5.529C42.372,2.23,37.124.816,30.41.816H10.925A2.788,2.788,0,0,0,8.17,3.162L.056,54.463A1.669,1.669,0,0,0,1.709,56.39H13.738l3.021-19.1-.094.6a2.778,2.778,0,0,1,2.745-2.346h5.716c11.23,0,20.023-4.548,22.591-17.7q.114-.584.2-1.138h0c.765-4.862-.005-8.172-2.643-11.168" transform="translate(-0.035 -0.816)" fill="#27346a"/>
    <path id="Path_2817" data-name="Path 2817" d="M21.362,14.946a2.452,2.452,0,0,1,1.053-.237H37.691a31.993,31.993,0,0,1,5.038.365q.663.106,1.287.246t1.212.31c.2.057.388.116.578.178a13.824,13.824,0,0,1,2.112.89c.765-4.864-.005-8.172-2.643-11.168C42.37,2.23,37.124.816,30.41.816H10.924A2.787,2.787,0,0,0,8.17,3.162L.056,54.461a1.668,1.668,0,0,0,1.651,1.928H13.738l6.268-39.627A2.435,2.435,0,0,1,21.362,14.946Z" transform="translate(-0.035 -0.816)" fill="#27346a"/>
    <path id="Path_2818" data-name="Path 2818" d="M96.559,78.41c-2.569,13.153-11.361,17.7-22.591,17.7H68.25a2.775,2.775,0,0,0-2.744,2.346l-3.758,23.754a1.461,1.461,0,0,0,1.445,1.688H73.333a2.438,2.438,0,0,0,2.409-2.052l.1-.515,1.911-12.076.123-.667a2.438,2.438,0,0,1,2.409-2.052H81.8c9.823,0,17.515-3.979,19.762-15.486.938-4.809.453-8.824-2.029-11.644a9.682,9.682,0,0,0-2.777-2.135c-.059.372-.123.749-.2,1.138Z" transform="translate(-48.876 -61.39)" fill="#2790c3"/>
    <path id="Path_2819" data-name="Path 2819" d="M108.426,68.619q-.588-.171-1.212-.31c-.416-.092-.846-.173-1.287-.244a31.8,31.8,0,0,0-5.04-.367H85.613A2.439,2.439,0,0,0,83.2,69.753L79.958,90.276l-.094.6a2.775,2.775,0,0,1,2.744-2.346h5.718c11.23,0,20.023-4.548,22.591-17.7.076-.389.14-.766.2-1.138A13.894,13.894,0,0,0,109,68.8c-.189-.062-.382-.123-.578-.18" transform="translate(-63.232 -53.806)" fill="#1f264f"/>
  </g>
</svg>
