<svg id="icon-CreditCard" xmlns="http://www.w3.org/2000/svg" width="150" height="100" viewBox="0 0 150 100">
  <rect id="Container" width="150" height="100" rx="4" fill="none"/>
  <path id="icon-Credit" d="M88.889,20.5H18.714a6.92,6.92,0,0,0-6.964,6.863V75.935A6.92,6.92,0,0,0,18.714,82.8H88.889a6.92,6.92,0,0,0,6.964-6.863V27.363A6.92,6.92,0,0,0,88.889,20.5Zm3.75,55.435a3.728,3.728,0,0,1-3.75,3.7H18.714a3.728,3.728,0,0,1-3.75-3.7V44.258H92.639Zm0-34.845H14.964V27.363a3.728,3.728,0,0,1,3.75-3.7H88.889a3.728,3.728,0,0,1,3.75,3.7ZM23.133,62.472H36.392a1.584,1.584,0,1,0,0-3.168H23.133a1.584,1.584,0,1,0,0,3.168Zm22.231,0H73.622a1.584,1.584,0,1,0,0-3.168H45.364a1.584,1.584,0,1,0,0,3.168Z" transform="translate(22.514 -0.42)" fill="#3d4954" stroke="#3d4954" stroke-width="0.5"/>
</svg>
