<svg xmlns="http://www.w3.org/2000/svg" xmlns:xlink="http://www.w3.org/1999/xlink" width="165" height="165" viewBox="0 0 165 165">
  <defs>
    <filter id="Base" x="0" y="0" width="165" height="165" filterUnits="userSpaceOnUse">
      <feOffset dy="2" input="SourceAlpha"/>
      <feGaussianBlur stdDeviation="2.5" result="blur"/>
      <feFlood flood-opacity="0.071"/>
      <feComposite operator="in" in2="blur"/>
      <feComposite in="SourceGraphic"/>
    </filter>
  </defs>
  <g id="Instagram" transform="translate(7.5 5.5)">
    <g transform="matrix(1, 0, 0, 1, -7.5, -5.5)" filter="url(#Base)">
      <rect id="Base-2" data-name="Base" width="150" height="150" rx="75" transform="translate(7.5 5.5)" fill="#fff"/>
    </g>
    <g id="Icon" transform="translate(45 45)">
      <path id="Icon-2" data-name="Icon" d="M30,60c-8.1,0-9.164-.045-12.314-.18l-.066,0a21.942,21.942,0,0,1-7.279-1.393A14.694,14.694,0,0,1,5.03,54.97a14.642,14.642,0,0,1-3.453-5.308A21.9,21.9,0,0,1,.186,42.38C.023,39.146,0,38.145,0,30c0-8.165.047-9.22.186-12.35v-.03a21.836,21.836,0,0,1,1.391-7.279A14.694,14.694,0,0,1,5.03,5.03a14.694,14.694,0,0,1,5.311-3.453A21.864,21.864,0,0,1,17.62.186C20.854.023,21.855,0,30,0s9.2.046,12.347.184l.032,0a21.872,21.872,0,0,1,7.282,1.391A14.642,14.642,0,0,1,54.97,5.03a14.693,14.693,0,0,1,3.453,5.311,21.907,21.907,0,0,1,1.393,7.279C59.977,20.815,60,21.813,60,30c0,8.1-.045,9.164-.18,12.312l0,.068a21.913,21.913,0,0,1-1.393,7.282,15.288,15.288,0,0,1-8.762,8.762,21.941,21.941,0,0,1-7.282,1.393C39.185,59.977,38.187,60,30,60ZM30,7.5c-7.3,0-8.165.039-11.037.167l-.044,0a15.009,15.009,0,0,0-5.084.953,8.569,8.569,0,0,0-3.156,2.055,8.475,8.475,0,0,0-2.055,3.156,14.953,14.953,0,0,0-.953,5.084C7.522,21.81,7.5,22.705,7.5,30s.039,8.165.167,11.037l0,.044a15.009,15.009,0,0,0,.953,5.084,9.119,9.119,0,0,0,5.211,5.214,15.008,15.008,0,0,0,5.084.953C21.8,52.48,22.6,52.5,30,52.5c7.284,0,8.217-.041,10.989-.165l.092,0a15.147,15.147,0,0,0,5.084-.953,9.134,9.134,0,0,0,5.214-5.214,15.008,15.008,0,0,0,.953-5.084l0-.032c.123-2.8.165-3.738.165-11.049,0-7.283-.041-8.223-.165-11.013l0-.068a15.147,15.147,0,0,0-.953-5.084,8.589,8.589,0,0,0-2.057-3.156,8.5,8.5,0,0,0-3.156-2.055,14.953,14.953,0,0,0-5.084-.953C38.19,7.522,37.295,7.5,30,7.5ZM30,45A15,15,0,1,1,45,30,15.017,15.017,0,0,1,30,45Zm0-22.5A7.5,7.5,0,1,0,37.5,30,7.509,7.509,0,0,0,30,22.5Zm15-3.75A3.749,3.749,0,1,1,48.752,15,3.753,3.753,0,0,1,45,18.749Z" transform="translate(0)" fill="#7d8fb3"/>
    </g>
  </g>
</svg>
