<svg id="Log-in" xmlns="http://www.w3.org/2000/svg" width="150" height="150" viewBox="0 0 150 150">
  <rect id="Conntainer" width="150" height="150" transform="translate(0 0)" fill="none"/>
  <path id="Log-in-2" data-name="Log-in" d="M164,160c0-37.134-33.128-67.243-74-67.243S16,122.867,16,160H27.387c0-31.421,28.034-56.9,62.613-56.9s62.613,25.474,62.613,56.9ZM90,82.414c22,0,39.849-16.208,39.849-36.21S112,10,90,10,50.152,26.208,50.152,46.2,68,82.414,90,82.414Zm0-10.349c-15.718,0-28.463-11.572-28.463-25.862S74.281,20.342,90,20.342s28.463,11.58,28.463,25.862S105.719,72.065,90,72.065Z" transform="translate(-15.239 -10)" fill="#3d4954" fill-rule="evenodd"/>
</svg>
