<svg xmlns="http://www.w3.org/2000/svg" xmlns:xlink="http://www.w3.org/1999/xlink" width="195" height="195" viewBox="0 0 195 195">
  <defs>
    <filter id="BG" x="0" y="0" width="195" height="195" filterUnits="userSpaceOnUse">
      <feOffset dy="2" input="SourceAlpha"/>
      <feGaussianBlur stdDeviation="7.5" result="blur"/>
      <feFlood flood-color="#606a80" flood-opacity="0.255"/>
      <feComposite operator="in" in2="blur"/>
      <feComposite in="SourceGraphic"/>
    </filter>
  </defs>
  <g id="Group_3255" data-name="Group 3255" transform="translate(-649.5 12912.5)">
    <g id="Group_3247" data-name="Group 3247" transform="translate(672 -12892)">
      <g id="Group_3241" data-name="Group 3241">
        <g id="Chat">
          <g transform="matrix(1, 0, 0, 1, -22.5, -20.5)" filter="url(#BG)">
            <rect id="BG-2" data-name="BG" width="150" height="150" rx="75" transform="translate(22.5 20.5)" fill="#7d8fb3"/>
          </g>
          <g id="Icon" transform="translate(42.022 42.023)">
            <path id="Icon-2" data-name="Icon" d="M66,66l-.006-.006L52.8,52.8h-33a6.608,6.608,0,0,1-6.6-6.6V42.9H52.8a3.3,3.3,0,0,0,3.3-3.3V13.2h3.3A6.608,6.608,0,0,1,66,19.8V66ZM0,49.5V6.6A6.607,6.607,0,0,1,6.6,0H42.9a6.608,6.608,0,0,1,6.6,6.6V29.7a6.608,6.608,0,0,1-6.6,6.6H13.2L.006,49.5Z" transform="translate(-0.022 -0.022)" fill="#fff"/>
          </g>
        </g>
      </g>
    </g>
  </g>
</svg>
