<svg xmlns="http://www.w3.org/2000/svg" width="416.712" height="500" viewBox="0 0 416.712 500">
  <g id="Group_3233" data-name="Group 3233" transform="translate(-208.628 12747)">
    <g id="Icon-_Gift_Package" data-name="Icon- Gift Package" transform="translate(208.628 -12747)">
      <path id="Path_66" data-name="Path 66" d="M532.453,34.9h-9.115c-37.29,7.458-78.723,54.692-82.037,109.384,81.208-.829,113.527-22.374,125.129-40.6a43.923,43.923,0,0,0,6.63-36.461C564.77,45.673,550.685,34.9,532.453,34.9" transform="translate(-225.725 -34.9)" fill="#3d4954"/>
      <rect id="Rectangle_9" data-name="Rectangle 9" width="152.474" height="101.926" transform="translate(0 124.345)" fill="#3d4954"/>
      <path id="Path_67" data-name="Path 67" d="M556.777,144.384C553.463,89.692,512.03,42.458,474.74,35h-9.116c-18.23,0-32.317,10.773-40.6,33.147a43.088,43.088,0,0,0,6.629,36.461c12.431,18.231,43.92,39.776,125.128,40.6" transform="translate(-354.813 -34.181)" fill="#3d4954"/>
      <rect id="Rectangle_10" data-name="Rectangle 10" width="152.474" height="101.926" transform="translate(264.238 124.345)" fill="#3d4954"/>
      <rect id="Rectangle_11" data-name="Rectangle 11" width="120.985" height="258.295" transform="translate(264.238 241.463)" fill="#3d4954"/>
      <rect id="Rectangle_12" data-name="Rectangle 12" width="120.985" height="258.295" transform="translate(31.49 241.463)" fill="#3d4954"/>
      <path id="Path_68" data-name="Path 68" d="M435.3,49.8V423.528h85.353V49.8Z" transform="translate(-269.203 76.472)" fill="#3d4954"/>
    </g>
  </g>
</svg>
