<svg id="Rating" xmlns="http://www.w3.org/2000/svg" width="245" height="153" viewBox="0 0 245 153">
  <text id="_5_Star" data-name="5 Star" transform="translate(0 14)" fill="#151515" font-size="14" font-family="Muli-Regular, Muli"><tspan x="0" y="0">5 Star</tspan></text>
  <text id="_4_Star" data-name="4 Star" transform="translate(0 48)" fill="#151515" font-size="14" font-family="Muli-Regular, Muli"><tspan x="0" y="0">4 Star</tspan></text>
  <text id="_2_Star" data-name="2 Star" transform="translate(0 115)" fill="#151515" font-size="14" font-family="Muli-Regular, Muli"><tspan x="0" y="0">2 Star</tspan></text>
  <text id="_3_Star" data-name="3 Star" transform="translate(0 82)" fill="#151515" font-size="14" font-family="Muli-Regular, Muli"><tspan x="0" y="0">3 Star</tspan></text>
  <text id="_1_Star" data-name="1 Star" transform="translate(0 149)" fill="#151515" font-size="14" font-family="Muli-Regular, Muli"><tspan x="0" y="0">1 Star</tspan></text>
  <text id="_68_" data-name="68%" transform="translate(245 14)" fill="#151515" font-size="14" font-family="Muli-Regular, Muli"><tspan x="-29.946" y="0">68%</tspan></text>
  <text id="_17_" data-name="17%" transform="translate(245 48)" fill="#151515" font-size="14" font-family="Muli-Regular, Muli"><tspan x="-29.946" y="0">17%</tspan></text>
  <text id="_3_" data-name="3%" transform="translate(245 115)" fill="#151515" font-size="14" font-family="Muli-Regular, Muli"><tspan x="-21.546" y="0">3%</tspan></text>
  <text id="_5_" data-name="5%" transform="translate(245 82)" fill="#151515" font-size="14" font-family="Muli-Regular, Muli"><tspan x="-21.546" y="0">5%</tspan></text>
  <text id="_7_" data-name="7%" transform="translate(245 149)" fill="#151515" font-size="14" font-family="Muli-Regular, Muli"><tspan x="-21.546" y="0">7%</tspan></text>
  <g id="Container" transform="translate(47 1)" fill="#f0f3f4" stroke="#f0f3f4" stroke-width="1">
    <rect width="160" height="16" rx="3" stroke="none"/>
    <rect x="0.5" y="0.5" width="159" height="15" rx="2.5" fill="none"/>
  </g>
  <g id="Container-2" data-name="Container" transform="translate(47 35)" fill="#f0f3f4" stroke="#f0f3f4" stroke-width="1">
    <rect width="160" height="16" rx="3" stroke="none"/>
    <rect x="0.5" y="0.5" width="159" height="15" rx="2.5" fill="none"/>
  </g>
  <g id="Container-3" data-name="Container" transform="translate(47 102)" fill="#f0f3f4" stroke="#f0f3f4" stroke-width="1">
    <rect width="160" height="16" rx="3" stroke="none"/>
    <rect x="0.5" y="0.5" width="159" height="15" rx="2.5" fill="none"/>
  </g>
  <g id="Container-4" data-name="Container" transform="translate(47 69)" fill="#f0f3f4">
    <path d="M 157 15.5 L 3 15.5 C 1.621500015258789 15.5 0.5 14.37849998474121 0.5 13 L 0.5 3 C 0.5 1.621500015258789 1.621500015258789 0.5 3 0.5 L 132.8883361816406 0.5 L 157 0.5 C 158.3784942626953 0.5 159.5 1.621500015258789 159.5 3 L 159.5 13 C 159.5 14.37849998474121 158.3784942626953 15.5 157 15.5 Z" stroke="none"/>
    <path d="M 3 1 C 1.897186279296875 1 1 1.897187232971191 1 3 L 1 13 C 1 14.10281276702881 1.897186279296875 15 3 15 L 157 15 C 158.1028137207031 15 159 14.10281276702881 159 13 L 159 3 C 159 1.897187232971191 158.1028137207031 1 157 1 L 132.8883361816406 1 L 3 1 M 3 0 L 132.8883361816406 0 L 157 0 C 158.6568603515625 0 160 1.343145370483398 160 3 L 160 13 C 160 14.6568546295166 158.6568603515625 16 157 16 L 3 16 C 1.3431396484375 16 0 14.6568546295166 0 13 L 0 3 C 0 1.343145370483398 1.3431396484375 0 3 0 Z" stroke="none" fill="#f0f3f4"/>
  </g>
  <g id="Container-5" data-name="Container" transform="translate(47 136)" fill="#f0f3f4" stroke="#f0f3f4" stroke-width="1">
    <rect width="160" height="16" rx="3" stroke="none"/>
    <rect x="0.5" y="0.5" width="159" height="15" rx="2.5" fill="none"/>
  </g>
  <path id="Rate" d="M3,0H120a0,0,0,0,1,0,0V16a0,0,0,0,1,0,0H3a3,3,0,0,1-3-3V3A3,3,0,0,1,3,0Z" transform="translate(47 1)" fill="#3d4954"/>
  <path id="Rate-2" data-name="Rate" d="M3,0H40a0,0,0,0,1,0,0V16a0,0,0,0,1,0,0H3a3,3,0,0,1-3-3V3A3,3,0,0,1,3,0Z" transform="translate(47 35)" fill="#3d4954"/>
  <path id="Rate-3" data-name="Rate" d="M3,0H4A0,0,0,0,1,4,0V16a0,0,0,0,1,0,0H3a3,3,0,0,1-3-3V3A3,3,0,0,1,3,0Z" transform="translate(47 102)" fill="#3d4954"/>
  <path id="Rate-4" data-name="Rate" d="M3,0H8A0,0,0,0,1,8,0V16a0,0,0,0,1,0,0H3a3,3,0,0,1-3-3V3A3,3,0,0,1,3,0Z" transform="translate(47 69)" fill="#3d4954"/>
  <path id="Rate-5" data-name="Rate" d="M3,0H20a0,0,0,0,1,0,0V16a0,0,0,0,1,0,0H3a3,3,0,0,1-3-3V3A3,3,0,0,1,3,0Z" transform="translate(47 136)" fill="#3d4954"/>
</svg>
