<svg id="Group_3231" data-name="Group 3231" xmlns="http://www.w3.org/2000/svg" width="150" height="150" viewBox="0 0 150 150">
  <rect id="Base" width="150" height="150" rx="75" fill="#f0f3f4"/>
  <g id="Icon" transform="translate(33.059 52.81)">
    <path id="Icon-2" data-name="Icon" d="M0,3.574A3.57,3.57,0,0,1,3.566,0H17.828a3.57,3.57,0,0,1,3.566,3.574" transform="translate(22.205 39.259)" fill="none" stroke="#3d4954" stroke-width="2"/>
    <path id="Icon-3" data-name="Icon" d="M4.258,26.223C.082,22.981,0,18.712,0,14.362V4.922q6.131.05,8.388-1.124Q9.847,3.039,14.366,0q4.542,3.039,6,3.8,2.257,1.174,8.388,1.124v9.44c0,4.35-.082,8.619-4.258,11.862a69.492,69.492,0,0,1-7.484,4.721h0a5.337,5.337,0,0,1-5.292,0A69.9,69.9,0,0,1,4.258,26.223Z" transform="translate(55.127 10.723)" fill="none" stroke="#3d4954" stroke-linecap="round" stroke-linejoin="round" stroke-width="2"/>
    <path id="Icon-4" data-name="Icon" d="M54.711,12.644H2.731A1.788,1.788,0,0,1,1.282,9.815L7.773.745A1.781,1.781,0,0,1,9.221,0h32.8" transform="translate(-0.948 31.73)" fill="none" stroke="#3d4954" stroke-linecap="round" stroke-linejoin="round" stroke-width="2"/>
    <path id="Icon-5" data-name="Icon" d="M0,31.253V3.574A3.57,3.57,0,0,1,3.566,0H44.193a3.57,3.57,0,0,1,3.566,3.574V9.543h0" transform="translate(7.224)" fill="none" stroke="#3d4954" stroke-linecap="round" stroke-linejoin="round" stroke-width="2"/>
    <path id="Icon-6" data-name="Icon" d="M0,4.278,4.969,9.259,14.2,0" transform="translate(62.258 23.232)" fill="none" stroke="#7d8fb3" stroke-linecap="round" stroke-linejoin="round" stroke-width="2"/>
  </g>
</svg>
