<svg xmlns="http://www.w3.org/2000/svg" xmlns:xlink="http://www.w3.org/1999/xlink" width="165" height="165" viewBox="0 0 165 165">
  <defs>
    <filter id="Base" x="0" y="0" width="165" height="165" filterUnits="userSpaceOnUse">
      <feOffset dy="2" input="SourceAlpha"/>
      <feGaussianBlur stdDeviation="2.5" result="blur"/>
      <feFlood flood-opacity="0.071"/>
      <feComposite operator="in" in2="blur"/>
      <feComposite in="SourceGraphic"/>
    </filter>
  </defs>
  <g id="Twitter" transform="translate(7.5 5.5)">
    <g transform="matrix(1, 0, 0, 1, -7.5, -5.5)" filter="url(#Base)">
      <rect id="Base-2" data-name="Base" width="150" height="150" rx="75" transform="translate(7.5 5.5)" fill="#fff"/>
    </g>
    <g id="Icon" transform="translate(45 45)">
      <path id="Icon-2" data-name="Icon" d="M60,7.1a20.986,20.986,0,0,1-7.071,2.384,15.059,15.059,0,0,0,5.414-8.377,22.087,22.087,0,0,1-7.817,3.674A11.376,11.376,0,0,0,41.538,0c-6.8,0-12.307,6.78-12.307,15.145a18.555,18.555,0,0,0,.317,3.452c-10.231-.632-19.3-6.662-25.373-15.826a17.842,17.842,0,0,0-1.665,7.615A16.31,16.31,0,0,0,7.984,23,10.587,10.587,0,0,1,2.41,21.1c0,.062,0,.129,0,.189,0,7.341,4.242,13.463,9.874,14.855a10.227,10.227,0,0,1-3.243.531,10.119,10.119,0,0,1-2.314-.27C8.29,42.42,12.838,46.8,18.222,46.925A21.957,21.957,0,0,1,2.937,53.412,20.28,20.28,0,0,1,0,53.2,30.333,30.333,0,0,0,18.869,60C41.51,60,53.893,36.921,53.893,16.9c0-.655-.015-1.311-.038-1.962A28.9,28.9,0,0,0,60,7.1Z" transform="translate(0 0)" fill="#7d8fb3"/>
    </g>
  </g>
</svg>
